<mxfile host="65bd71144e" pages="2">
    <diagram id="rVZj79n0Ob877yGKPZXF" name="Page-1">
        <mxGraphModel dx="1013" dy="462" grid="1" gridSize="10" guides="1" tooltips="1" connect="1" arrows="1" fold="1" page="1" pageScale="1" pageWidth="1100" pageHeight="850" math="0" shadow="0">
            <root>
                <mxCell id="0"/>
                <mxCell id="1" parent="0"/>
                <mxCell id="a4bU4X2QWl-O1gPmdE-o-12" value="" style="edgeStyle=orthogonalEdgeStyle;rounded=0;orthogonalLoop=1;jettySize=auto;html=1;fontSize=17;strokeWidth=2;" parent="1" source="a4bU4X2QWl-O1gPmdE-o-2" edge="1">
                    <mxGeometry relative="1" as="geometry">
                        <mxPoint x="340" y="298" as="targetPoint"/>
                    </mxGeometry>
                </mxCell>
                <mxCell id="a4bU4X2QWl-O1gPmdE-o-2" value="Action Creators" style="swimlane;fontSize=20;startSize=40;fillStyle=auto;" parent="1" vertex="1">
                    <mxGeometry x="40" y="218" width="240" height="160" as="geometry"/>
                </mxCell>
                <mxCell id="a4bU4X2QWl-O1gPmdE-o-3" value="&lt;font style=&quot;font-size: 17px;&quot;&gt;searchItems(term)&lt;/font&gt;" style="text;html=1;align=center;verticalAlign=middle;resizable=0;points=[];autosize=1;strokeColor=none;fillColor=none;fontSize=20;" parent="a4bU4X2QWl-O1gPmdE-o-2" vertex="1">
                    <mxGeometry x="40" y="72" width="160" height="40" as="geometry"/>
                </mxCell>
                <mxCell id="a4bU4X2QWl-O1gPmdE-o-18" style="edgeStyle=orthogonalEdgeStyle;rounded=0;orthogonalLoop=1;jettySize=auto;html=1;entryX=0.5;entryY=1;entryDx=0;entryDy=0;strokeWidth=2;fontSize=17;" parent="1" source="a4bU4X2QWl-O1gPmdE-o-5" target="a4bU4X2QWl-O1gPmdE-o-14" edge="1">
                    <mxGeometry relative="1" as="geometry"/>
                </mxCell>
                <mxCell id="a4bU4X2QWl-O1gPmdE-o-5" value="Action Types" style="swimlane;fontSize=20;startSize=40;" parent="1" vertex="1">
                    <mxGeometry x="340" y="500" width="280" height="240" as="geometry"/>
                </mxCell>
                <mxCell id="a4bU4X2QWl-O1gPmdE-o-6" value="&lt;span style=&quot;font-size: 17px;&quot;&gt;&quot;search_items&quot;&lt;/span&gt;" style="text;html=1;align=center;verticalAlign=middle;resizable=0;points=[];autosize=1;strokeColor=none;fillColor=none;fontSize=20;" parent="a4bU4X2QWl-O1gPmdE-o-5" vertex="1">
                    <mxGeometry x="75" y="60" width="140" height="40" as="geometry"/>
                </mxCell>
                <mxCell id="a4bU4X2QWl-O1gPmdE-o-7" value="&lt;font style=&quot;font-size: 17px;&quot;&gt;&quot;search_items_success&quot;&lt;/font&gt;" style="text;html=1;align=center;verticalAlign=middle;resizable=0;points=[];autosize=1;strokeColor=none;fillColor=none;fontSize=20;" parent="a4bU4X2QWl-O1gPmdE-o-5" vertex="1">
                    <mxGeometry x="40" y="110" width="210" height="40" as="geometry"/>
                </mxCell>
                <mxCell id="a4bU4X2QWl-O1gPmdE-o-9" value="&lt;span style=&quot;font-size: 17px;&quot;&gt;&quot;search_items_error&quot;&lt;/span&gt;" style="text;html=1;align=center;verticalAlign=middle;resizable=0;points=[];autosize=1;strokeColor=none;fillColor=none;fontSize=20;" parent="a4bU4X2QWl-O1gPmdE-o-5" vertex="1">
                    <mxGeometry x="55" y="160" width="180" height="40" as="geometry"/>
                </mxCell>
                <mxCell id="a4bU4X2QWl-O1gPmdE-o-11" value="&lt;h1&gt;&lt;span style=&quot;background-color: initial;&quot;&gt;NPM Package Search App&lt;/span&gt;&lt;br&gt;&lt;/h1&gt;" style="text;html=1;strokeColor=none;fillColor=none;spacing=5;spacingTop=-20;whiteSpace=wrap;overflow=hidden;rounded=0;fontSize=17;" parent="1" vertex="1">
                    <mxGeometry x="40" y="30" width="450" height="70" as="geometry"/>
                </mxCell>
                <mxCell id="a4bU4X2QWl-O1gPmdE-o-28" style="edgeStyle=orthogonalEdgeStyle;rounded=0;orthogonalLoop=1;jettySize=auto;html=1;strokeWidth=2;fontSize=17;" parent="1" source="a4bU4X2QWl-O1gPmdE-o-14" edge="1">
                    <mxGeometry relative="1" as="geometry">
                        <mxPoint x="680" y="298" as="targetPoint"/>
                    </mxGeometry>
                </mxCell>
                <mxCell id="a4bU4X2QWl-O1gPmdE-o-14" value="Actions" style="swimlane;fontSize=20;startSize=40;" parent="1" vertex="1">
                    <mxGeometry x="340" y="178" width="280" height="240" as="geometry"/>
                </mxCell>
                <mxCell id="a4bU4X2QWl-O1gPmdE-o-15" value="&lt;font style=&quot;font-size: 17px;&quot;&gt;SearchItems&lt;/font&gt;" style="text;html=1;align=center;verticalAlign=middle;resizable=0;points=[];autosize=1;strokeColor=none;fillColor=none;fontSize=20;" parent="a4bU4X2QWl-O1gPmdE-o-14" vertex="1">
                    <mxGeometry x="85" y="60" width="120" height="40" as="geometry"/>
                </mxCell>
                <mxCell id="a4bU4X2QWl-O1gPmdE-o-16" value="&lt;font style=&quot;font-size: 17px;&quot;&gt;SearchItemsSuccess&lt;/font&gt;" style="text;html=1;align=center;verticalAlign=middle;resizable=0;points=[];autosize=1;strokeColor=none;fillColor=none;fontSize=20;" parent="a4bU4X2QWl-O1gPmdE-o-14" vertex="1">
                    <mxGeometry x="55" y="110" width="180" height="40" as="geometry"/>
                </mxCell>
                <mxCell id="a4bU4X2QWl-O1gPmdE-o-17" value="&lt;font style=&quot;font-size: 17px;&quot;&gt;SearchItemsError&lt;/font&gt;" style="text;html=1;align=center;verticalAlign=middle;resizable=0;points=[];autosize=1;strokeColor=none;fillColor=none;fontSize=20;" parent="a4bU4X2QWl-O1gPmdE-o-14" vertex="1">
                    <mxGeometry x="65" y="160" width="160" height="40" as="geometry"/>
                </mxCell>
                <mxCell id="a4bU4X2QWl-O1gPmdE-o-19" value="Redux Store" style="swimlane;fontSize=20;startSize=40;" parent="1" vertex="1">
                    <mxGeometry x="680" y="178" width="380" height="242" as="geometry"/>
                </mxCell>
                <mxCell id="a4bU4X2QWl-O1gPmdE-o-20" value="&lt;font style=&quot;font-size: 17px;&quot;&gt;SearchItems&lt;/font&gt;" style="text;html=1;align=center;verticalAlign=middle;resizable=0;points=[];autosize=1;strokeColor=none;fillColor=none;fontSize=20;" parent="a4bU4X2QWl-O1gPmdE-o-19" vertex="1">
                    <mxGeometry x="220" y="75" width="120" height="40" as="geometry"/>
                </mxCell>
                <mxCell id="a4bU4X2QWl-O1gPmdE-o-21" value="&lt;font style=&quot;font-size: 17px;&quot;&gt;SearchItemsSuccess&lt;/font&gt;" style="text;html=1;align=center;verticalAlign=middle;resizable=0;points=[];autosize=1;strokeColor=none;fillColor=none;fontSize=20;" parent="a4bU4X2QWl-O1gPmdE-o-19" vertex="1">
                    <mxGeometry x="190" y="125" width="180" height="40" as="geometry"/>
                </mxCell>
                <mxCell id="a4bU4X2QWl-O1gPmdE-o-22" value="&lt;font style=&quot;font-size: 17px;&quot;&gt;SearchItemsError&lt;/font&gt;" style="text;html=1;align=center;verticalAlign=middle;resizable=0;points=[];autosize=1;strokeColor=none;fillColor=none;fontSize=20;" parent="a4bU4X2QWl-O1gPmdE-o-19" vertex="1">
                    <mxGeometry x="200" y="175" width="160" height="40" as="geometry"/>
                </mxCell>
                <mxCell id="a4bU4X2QWl-O1gPmdE-o-24" value="items" style="text;html=1;align=center;verticalAlign=middle;resizable=0;points=[];autosize=1;strokeColor=none;fillColor=none;fontSize=17;" parent="a4bU4X2QWl-O1gPmdE-o-19" vertex="1">
                    <mxGeometry x="40" y="130" width="60" height="30" as="geometry"/>
                </mxCell>
                <mxCell id="a4bU4X2QWl-O1gPmdE-o-32" style="edgeStyle=orthogonalEdgeStyle;rounded=0;orthogonalLoop=1;jettySize=auto;html=1;strokeWidth=1;fontSize=17;" parent="a4bU4X2QWl-O1gPmdE-o-19" edge="1">
                    <mxGeometry relative="1" as="geometry">
                        <mxPoint x="180" y="194.5" as="targetPoint"/>
                        <mxPoint x="150" y="194.5" as="sourcePoint"/>
                    </mxGeometry>
                </mxCell>
                <mxCell id="a4bU4X2QWl-O1gPmdE-o-33" style="edgeStyle=orthogonalEdgeStyle;rounded=0;orthogonalLoop=1;jettySize=auto;html=1;strokeWidth=1;fontSize=17;" parent="a4bU4X2QWl-O1gPmdE-o-19" edge="1">
                    <mxGeometry relative="1" as="geometry">
                        <mxPoint x="180" y="144.5" as="targetPoint"/>
                        <mxPoint x="150" y="144.5" as="sourcePoint"/>
                    </mxGeometry>
                </mxCell>
                <mxCell id="a4bU4X2QWl-O1gPmdE-o-34" style="edgeStyle=orthogonalEdgeStyle;rounded=0;orthogonalLoop=1;jettySize=auto;html=1;strokeWidth=1;fontSize=17;" parent="a4bU4X2QWl-O1gPmdE-o-19" edge="1">
                    <mxGeometry relative="1" as="geometry">
                        <mxPoint x="180" y="94.5" as="targetPoint"/>
                        <mxPoint x="150" y="94.5" as="sourcePoint"/>
                    </mxGeometry>
                </mxCell>
            </root>
        </mxGraphModel>
    </diagram>
    <diagram id="rKwuMmLsePZD-WWnuaPv" name="Page-2">
        <mxGraphModel dx="1013" dy="462" grid="1" gridSize="10" guides="1" tooltips="1" connect="1" arrows="1" fold="1" page="1" pageScale="1" pageWidth="1100" pageHeight="850" math="0" shadow="0">
            <root>
                <mxCell id="0"/>
                <mxCell id="1" parent="0"/>
                <mxCell id="pqsvzmEK9OCggu-QEx9_-1" value="src" style="swimlane;fontSize=20;startSize=40;" parent="1" vertex="1">
                    <mxGeometry x="70" y="80" width="970" height="420" as="geometry"/>
                </mxCell>
                <mxCell id="pqsvzmEK9OCggu-QEx9_-2" value="components" style="swimlane;fontSize=17;startSize=30;" parent="pqsvzmEK9OCggu-QEx9_-1" vertex="1">
                    <mxGeometry x="60" y="145" width="270" height="200" as="geometry"/>
                </mxCell>
                <mxCell id="pqsvzmEK9OCggu-QEx9_-3" value="App.tsx" style="rounded=0;whiteSpace=wrap;html=1;fontSize=17;" parent="pqsvzmEK9OCggu-QEx9_-2" vertex="1">
                    <mxGeometry x="75" y="70" width="120" height="40" as="geometry"/>
                </mxCell>
                <mxCell id="pqsvzmEK9OCggu-QEx9_-4" value="ItemsList.tsx" style="rounded=0;whiteSpace=wrap;html=1;fontSize=17;" parent="pqsvzmEK9OCggu-QEx9_-2" vertex="1">
                    <mxGeometry x="75" y="130" width="120" height="40" as="geometry"/>
                </mxCell>
                <mxCell id="pqsvzmEK9OCggu-QEx9_-5" value="redux" style="swimlane;fontSize=17;startSize=30;" parent="pqsvzmEK9OCggu-QEx9_-1" vertex="1">
                    <mxGeometry x="440" y="100" width="430" height="270" as="geometry"/>
                </mxCell>
                <mxCell id="pqsvzmEK9OCggu-QEx9_-7" value="action creators" style="rounded=0;whiteSpace=wrap;html=1;fontSize=17;" parent="pqsvzmEK9OCggu-QEx9_-5" vertex="1">
                    <mxGeometry x="240" y="130" width="142.5" height="40" as="geometry"/>
                </mxCell>
                <mxCell id="pqsvzmEK9OCggu-QEx9_-11" value="reducers" style="rounded=0;whiteSpace=wrap;html=1;fontSize=17;" parent="pqsvzmEK9OCggu-QEx9_-5" vertex="1">
                    <mxGeometry x="240" y="70" width="142.5" height="40" as="geometry"/>
                </mxCell>
                <mxCell id="pqsvzmEK9OCggu-QEx9_-12" value="middlewares" style="rounded=0;whiteSpace=wrap;html=1;fontSize=17;" parent="pqsvzmEK9OCggu-QEx9_-5" vertex="1">
                    <mxGeometry x="240" y="190" width="142.5" height="40" as="geometry"/>
                </mxCell>
                <mxCell id="pqsvzmEK9OCggu-QEx9_-14" value="index.ts" style="rounded=0;whiteSpace=wrap;html=1;fontSize=17;fillColor=#f5f5f5;fontColor=#333333;strokeColor=#666666;" parent="pqsvzmEK9OCggu-QEx9_-5" vertex="1">
                    <mxGeometry x="30" y="130" width="142.5" height="40" as="geometry"/>
                </mxCell>
                <mxCell id="pqsvzmEK9OCggu-QEx9_-15" style="edgeStyle=orthogonalEdgeStyle;rounded=0;orthogonalLoop=1;jettySize=auto;html=1;strokeWidth=1;fontSize=17;" parent="1" edge="1">
                    <mxGeometry relative="1" as="geometry">
                        <mxPoint x="540" y="324" as="targetPoint"/>
                        <mxPoint x="400" y="324" as="sourcePoint"/>
                    </mxGeometry>
                </mxCell>
                <mxCell id="pqsvzmEK9OCggu-QEx9_-16" style="edgeStyle=orthogonalEdgeStyle;rounded=0;orthogonalLoop=1;jettySize=auto;html=1;strokeWidth=1;fontSize=17;" parent="1" edge="1">
                    <mxGeometry relative="1" as="geometry">
                        <mxPoint x="400" y="338" as="targetPoint"/>
                        <mxPoint x="540" y="338" as="sourcePoint"/>
                    </mxGeometry>
                </mxCell>
            </root>
        </mxGraphModel>
    </diagram>
</mxfile>